<?xml version="1.0" encoding="UTF-8" standalone="no"?>
<!-- Uploaded to: SVG Repo, www.svgrepo.com, Generator: SVG Repo Mixer Tools -->

<svg
   width="800px"
   height="800px"
   viewBox="0 0 24 24"
   fill="none"
   version="1.1"
   id="svg3"
   sodipodi:docname="new_layer.svg"
   inkscape:version="1.4.4 (dcaf3e7d9e, 2026-05-05)"
   xmlns:inkscape="http://www.inkscape.org/namespaces/inkscape"
   xmlns:sodipodi="http://sodipodi.sourceforge.net/DTD/sodipodi-0.dtd"
   xmlns:xlink="http://www.w3.org/1999/xlink"
   xmlns="http://www.w3.org/2000/svg"
   xmlns:svg="http://www.w3.org/2000/svg">
  <defs
     id="defs3">
    <linearGradient
       id="linearGradient18"
       inkscape:collect="always">
      <stop
         style="stop-color:#1b7800;stop-opacity:1;"
         offset="0"
         id="stop17" />
      <stop
         style="stop-color:#155a00;stop-opacity:1;"
         offset="1"
         id="stop18" />
    </linearGradient>
    <linearGradient
       id="linearGradient15"
       inkscape:collect="always">
      <stop
         style="stop-color:#1b7800;stop-opacity:1;"
         offset="0"
         id="stop15" />
      <stop
         style="stop-color:#124c00;stop-opacity:1;"
         offset="1"
         id="stop16" />
    </linearGradient>
    <linearGradient
       id="linearGradient11"
       inkscape:collect="always">
      <stop
         style="stop-color:#93c2ff;stop-opacity:1;"
         offset="0"
         id="stop10" />
      <stop
         style="stop-color:#3473ca;stop-opacity:1;"
         offset="1"
         id="stop11" />
    </linearGradient>
    <linearGradient
       id="linearGradient8"
       inkscape:collect="always">
      <stop
         style="stop-color:#9b31ff;stop-opacity:1;"
         offset="0.4675492"
         id="stop7" />
      <stop
         style="stop-color:#550098;stop-opacity:1;"
         offset="1"
         id="stop8" />
    </linearGradient>
    <linearGradient
       id="linearGradient4"
       inkscape:collect="always">
      <stop
         style="stop-color:#2481fa;stop-opacity:1;"
         offset="0"
         id="stop4" />
      <stop
         style="stop-color:#043f8f;stop-opacity:1;"
         offset="1"
         id="stop5" />
    </linearGradient>
    <radialGradient
       inkscape:collect="always"
       xlink:href="#linearGradient4"
       id="radialGradient5"
       cx="11.699779"
       cy="10.523069"
       fx="11.699779"
       fy="10.523069"
       r="12.148821"
       gradientTransform="matrix(0.83732925,0,0,0.4141974,-0.42061217,9.3128905)"
       gradientUnits="userSpaceOnUse" />
    <radialGradient
       inkscape:collect="always"
       xlink:href="#linearGradient8"
       id="radialGradient6"
       gradientUnits="userSpaceOnUse"
       gradientTransform="matrix(0.83732925,0,0,0.4141974,-0.49008807,12.607696)"
       cx="11.699779"
       cy="10.523069"
       fx="11.699779"
       fy="10.523069"
       r="12.148821" />
    <radialGradient
       inkscape:collect="always"
       xlink:href="#linearGradient11"
       id="radialGradient7"
       gradientUnits="userSpaceOnUse"
       gradientTransform="matrix(0.83732925,0,0,0.4141974,-0.38587427,15.426781)"
       cx="11.699779"
       cy="10.523069"
       fx="11.699779"
       fy="10.523069"
       r="12.148821" />
    <radialGradient
       inkscape:collect="always"
       xlink:href="#linearGradient15"
       id="radialGradient20"
       cx="19.529773"
       cy="4.0495279"
       fx="19.529773"
       fy="4.0495279"
       r="0.84231502"
       gradientTransform="matrix(1.5838825,0,0,7.8543416,-13.010393,-25.862701)"
       gradientUnits="userSpaceOnUse" />
    <radialGradient
       inkscape:collect="always"
       xlink:href="#linearGradient18"
       id="radialGradient21"
       cx="19.529772"
       cy="4.0495283"
       fx="19.529772"
       fy="4.0495283"
       r="4.3477235"
       gradientTransform="matrix(1.5838825,0,0,0.33816937,-13.010393,4.5742498)"
       gradientUnits="userSpaceOnUse" />
  </defs>
  <sodipodi:namedview
     id="namedview3"
     pagecolor="#ffffff"
     bordercolor="#000000"
     borderopacity="0.25"
     inkscape:showpageshadow="2"
     inkscape:pageopacity="0.0"
     inkscape:pagecheckerboard="0"
     inkscape:deskcolor="#d1d1d1"
     inkscape:zoom="1.0226532"
     inkscape:cx="318.77864"
     inkscape:cy="369.13785"
     inkscape:window-width="2560"
     inkscape:window-height="1366"
     inkscape:window-x="0"
     inkscape:window-y="0"
     inkscape:window-maximized="1"
     inkscape:current-layer="svg3" />
  <path
     d="m 2.5803136,21.715378 c -1.93192647,-0.90979 -2.89788477,-1.36469 -2.89788477,-1.929967 0,-0.565276 0.9659583,-1.020177 2.89788477,-1.929969 l 2.7321537,-1.286648 c 1.9319161,-0.90979 2.897854,-1.364692 4.098225,-1.364692 1.2003687,0 2.1662907,0.454902 4.0982257,1.364692 l 2.732182,1.286648 c 1.931938,0.909792 2.897855,1.364693 2.897855,1.929969 0,0.565277 -0.965917,1.020177 -2.897855,1.929967 l -2.732182,1.286684 c -1.931935,0.909734 -2.897857,1.364657 -4.0982257,1.364657 -1.200371,0 -2.1663089,-0.454923 -4.098225,-1.364657 z"
     stroke="#1C274C"
     stroke-width="1.86312"
     id="path6"
     style="fill:url(#radialGradient7);stroke:#2461b4;stroke-width:0.894979;stroke-dasharray:none;stroke-opacity:1" />
  <path
     d="m 2.4760998,18.896293 c -1.93192647,-0.909792 -2.89788487,-1.364692 -2.89788487,-1.929969 0,-0.565275 0.9659584,-1.020177 2.89788487,-1.929968 l 2.7321536,-1.286648 c 1.9319167,-0.90979 2.8978549,-1.364691 4.0982259,-1.364691 1.2003687,0 2.1662907,0.454901 4.0982257,1.364691 l 2.732183,1.286648 c 1.931937,0.909791 2.897855,1.364693 2.897855,1.929968 0,0.565277 -0.965918,1.020177 -2.897855,1.929969 l -2.732183,1.286682 c -1.931935,0.909734 -2.897857,1.364657 -4.0982257,1.364657 -1.200371,0 -2.1663092,-0.454923 -4.0982259,-1.364657 z"
     stroke="#1C274C"
     stroke-width="1.86312"
     id="path5"
     style="fill:url(#radialGradient6);stroke:#5b099d;stroke-width:0.894979;stroke-dasharray:none;stroke-opacity:1" />
  <path
     d="m 2.5455758,15.601486 c -1.93192657,-0.90979 -2.89788487,-1.364692 -2.89788487,-1.929967 0,-0.565277 0.9659583,-1.020177 2.89788487,-1.929969 L 5.2777294,10.454903 C 7.209646,9.5451122 8.1755843,9.0902112 9.3759543,9.0902112 c 1.2003697,0 2.1662917,0.454901 4.0982267,1.3646918 l 2.732182,1.286647 c 1.931937,0.909792 2.897855,1.364692 2.897855,1.929969 0,0.565275 -0.965918,1.020177 -2.897855,1.929967 l -2.732182,1.286683 c -1.931935,0.909734 -2.897857,1.364657 -4.0982267,1.364657 -1.20037,0 -2.1663083,-0.454923 -4.0982249,-1.364657 z"
     stroke="#1C274C"
     stroke-width="1.86312"
     id="path1"
     style="fill:url(#radialGradient5);stroke:#0559c6;stroke-width:0.894979;stroke-dasharray:none;stroke-opacity:1" />
  <path
     style="fill:#ffffff;fill-opacity:1;stroke:url(#radialGradient20);stroke-width:2.80109;stroke-linecap:butt"
     d="M 17.922472,0.79811269 V 11.089239"
     id="path8" />
  <path
     style="fill:none;fill-opacity:1;stroke:url(#radialGradient21);stroke-width:2.80109;stroke-linecap:butt"
     d="m 12.370316,5.9436764 c 3.820811,0 7.560419,0 11.104311,0"
     id="path9"
     sodipodi:nodetypes="cc" />
</svg>
