<?xml version="1.0" encoding="UTF-8" standalone="no"?>
<!-- Uploaded to: SVG Repo, www.svgrepo.com, Generator: SVG Repo Mixer Tools -->

<svg
   width="800px"
   height="800px"
   viewBox="0 0 24 24"
   fill="none"
   version="1.1"
   id="svg1"
   sodipodi:docname="fuse.svg"
   inkscape:version="1.4.4 (dcaf3e7d9e, 2026-05-05)"
   xml:space="preserve"
   xmlns:inkscape="http://www.inkscape.org/namespaces/inkscape"
   xmlns:sodipodi="http://sodipodi.sourceforge.net/DTD/sodipodi-0.dtd"
   xmlns="http://www.w3.org/2000/svg"
   xmlns:svg="http://www.w3.org/2000/svg"><defs
     id="defs1"><rect
       x="46.936733"
       y="122.23108"
       width="650.26932"
       height="567.15219"
       id="rect7" /></defs><sodipodi:namedview
     id="namedview1"
     pagecolor="#ffffff"
     bordercolor="#000000"
     borderopacity="0.25"
     inkscape:showpageshadow="2"
     inkscape:pageopacity="0.0"
     inkscape:pagecheckerboard="0"
     inkscape:deskcolor="#d1d1d1"
     inkscape:zoom="1.0226532"
     inkscape:cx="298.24382"
     inkscape:cy="368.16"
     inkscape:window-width="1912"
     inkscape:window-height="1366"
     inkscape:window-x="0"
     inkscape:window-y="0"
     inkscape:window-maximized="0"
     inkscape:current-layer="svg1" /><path
     style="display:none;fill:none;fill-opacity:1;stroke:#000000;stroke-width:0.405;stroke-linecap:butt;stroke-linejoin:miter;stroke-dasharray:none;stroke-opacity:1"
     d="M 6.4538007,11.059468 1.4374375,6.1604462 7.5685482,7.5685481 5.6617434,2.6401912 8.4779475,4.928357 8.389941,1.408102 l 2.757533,3.578926 2.082817,-4.22430609 0.704051,5.83775619 4.869686,-4.1362996 -1.232089,3.6082612 3.402913,-1.6721211 -3.109559,5.0750343 4.576332,0.8213931 -4.106964,1.848134 4.429654,3.109558 -3.138894,-0.05867 2.522849,2.669527 -6.893832,-1.877469 1.085412,6.336459 -2.962882,-3.461584 -1.261424,4.458989 -0.733387,-2.816204 -1.4374366,2.640191 -0.3520257,-7.040509 -6.219117,3.402913 2.3468367,-4.370984 -4.1656351,0.117342 2.552185,-1.730792 -2.7281977,-0.586709 z"
     id="path120" /><rect
     style="fill:#ffffff;fill-opacity:1;stroke:none;stroke-width:0.347037"
     id="rect1"
     width="15.75314"
     height="2.6695268"
     x="-0.85072827"
     y="3.3735778"
     ry="0.45913583" /><rect
     style="fill:#0065ff;fill-opacity:1;stroke:none;stroke-width:0.405"
     id="rect3"
     width="3.4615839"
     height="2.5815203"
     x="6.4101925"
     y="14.998907"
     ry="1.0385659"
     transform="rotate(-36.220288)" /><rect
     style="fill:#0065ff;fill-opacity:1;stroke:none;stroke-width:0.405"
     id="rect4"
     width="3.4615839"
     height="2.5815203"
     x="6.8650975"
     y="18.895617"
     ry="1.0385659"
     transform="rotate(-36.220288)" /><rect
     style="fill:#0065ff;fill-opacity:1;stroke:none;stroke-width:0.405"
     id="rect5"
     width="3.4615839"
     height="2.5815203"
     x="7.1463423"
     y="22.483318"
     ry="1.0385659"
     transform="rotate(-36.220288)" /><rect
     style="fill:#ffffff;fill-opacity:1;stroke:none;stroke-width:0.423843"
     id="rect2"
     width="23.497702"
     height="2.6695268"
     x="-0.85072827"
     y="17.806623"
     ry="0.45913583" /></svg>
