<?xml version="1.0" encoding="UTF-8" standalone="no"?>
<!-- Uploaded to: SVG Repo, www.svgrepo.com, Generator: SVG Repo Mixer Tools -->

<svg
   width="800px"
   height="800px"
   viewBox="0 0 24 24"
   fill="none"
   version="1.1"
   id="svg1"
   sodipodi:docname="select.svg"
   inkscape:version="1.4.4 (dcaf3e7d9e, 2026-05-05)"
   xmlns:inkscape="http://www.inkscape.org/namespaces/inkscape"
   xmlns:sodipodi="http://sodipodi.sourceforge.net/DTD/sodipodi-0.dtd"
   xmlns="http://www.w3.org/2000/svg"
   xmlns:svg="http://www.w3.org/2000/svg">
  <defs
     id="defs1">
    <pattern
       patternUnits="userSpaceOnUse"
       width="972.60548"
       height="1011.6367"
       patternTransform="translate(-65.032713,-114.44633)"
       preserveAspectRatio="xMidYMid"
       id="pattern10"
       inkscape:label="pattern10">
      <rect
         style="fill:#f50000;fill-opacity:1;stroke:none;stroke-width:115.342;stroke-linecap:round"
         id="rect1"
         width="553.94489"
         height="94.612251"
         x="-245.95213"
         y="275.71274"
         transform="matrix(0.74044457,-0.67211743,0.66052055,0.75080797,0,0)" />
      <rect
         style="fill:#f500cf;fill-opacity:1;stroke:none;stroke-width:128.23;stroke-linecap:round"
         id="rect2"
         width="553.94489"
         height="116.93648"
         x="-245.95213"
         y="370.32495"
         transform="matrix(0.74044457,-0.67211743,0.66052055,0.75080797,0,0)" />
      <rect
         style="fill:#7b00f5;fill-opacity:1;stroke:none;stroke-width:141.265;stroke-linecap:round"
         id="rect3"
         width="553.94489"
         height="141.9184"
         x="-245.95213"
         y="464.93719"
         transform="matrix(0.74044457,-0.67211743,0.66052055,0.75080797,0,0)" />
      <rect
         style="fill:#0039f5;fill-opacity:1;stroke:none;stroke-width:141.265;stroke-linecap:round"
         id="rect4"
         width="553.94489"
         height="141.91838"
         x="-245.95213"
         y="559.54944"
         transform="matrix(0.74044457,-0.67211743,0.66052055,0.75080797,0,0)" />
      <rect
         style="fill:#00b1f5;fill-opacity:1;stroke:none;stroke-width:141.265;stroke-linecap:round"
         id="rect5"
         width="553.94489"
         height="141.91835"
         x="-245.95213"
         y="654.16168"
         transform="matrix(0.74044457,-0.67211743,0.66052055,0.75080797,0,0)" />
      <rect
         style="fill:#00f596;fill-opacity:1;stroke:none;stroke-width:141.265;stroke-linecap:round"
         id="rect6"
         width="553.94489"
         height="141.91835"
         x="-245.95213"
         y="748.77393"
         transform="matrix(0.74044457,-0.67211743,0.66052055,0.75080797,0,0)" />
      <rect
         style="fill:#34f500;fill-opacity:1;stroke:none;stroke-width:141.265;stroke-linecap:round"
         id="rect7"
         width="553.94489"
         height="141.91835"
         x="-245.95213"
         y="843.38617"
         transform="matrix(0.74044457,-0.67211743,0.66052055,0.75080797,0,0)" />
      <rect
         style="fill:#f5f300;fill-opacity:1;stroke:none;stroke-width:141.265;stroke-linecap:round"
         id="rect8"
         width="553.94489"
         height="141.91835"
         x="-245.95213"
         y="937.99841"
         transform="matrix(0.74044457,-0.67211743,0.66052055,0.75080797,0,0)" />
      <rect
         style="fill:#f57100;fill-opacity:1;stroke:none;stroke-width:115.342;stroke-linecap:round"
         id="rect9"
         width="553.94489"
         height="94.612251"
         x="-245.95213"
         y="1032.6107"
         transform="matrix(0.74044457,-0.67211743,0.66052055,0.75080797,0,0)" />
    </pattern>
    <pattern
       patternUnits="userSpaceOnUse"
       width="972.60551"
       height="1011.6367"
       patternTransform="translate(-65.032702,-114.44631)"
       preserveAspectRatio="xMidYMid"
       id="pattern20"
       inkscape:label="pattern20">
      <rect
         style="fill:#bf3636;fill-opacity:1;stroke:none;stroke-width:115.342;stroke-linecap:round"
         id="rect11"
         width="553.94489"
         height="94.612251"
         x="-245.95213"
         y="275.71274"
         transform="matrix(0.74044457,-0.67211743,0.66052055,0.75080797,0,0)" />
      <rect
         style="fill:#d025b6;fill-opacity:1;stroke:none;stroke-width:128.23;stroke-linecap:round"
         id="rect12"
         width="553.94489"
         height="116.93648"
         x="-245.95213"
         y="370.32492"
         transform="matrix(0.74044457,-0.67211743,0.66052055,0.75080797,0,0)" />
      <rect
         style="fill:#7b00f5;fill-opacity:1;stroke:none;stroke-width:141.265;stroke-linecap:round"
         id="rect13"
         width="553.94489"
         height="141.9184"
         x="-245.95213"
         y="464.93719"
         transform="matrix(0.74044457,-0.67211743,0.66052055,0.75080797,0,0)" />
      <rect
         style="fill:#3153c4;fill-opacity:1;stroke:none;stroke-width:141.265;stroke-linecap:round"
         id="rect14"
         width="553.94489"
         height="141.9184"
         x="-245.95213"
         y="559.54944"
         transform="matrix(0.74044457,-0.67211743,0.66052055,0.75080797,0,0)" />
      <rect
         style="fill:#00b1f5;fill-opacity:1;stroke:none;stroke-width:141.265;stroke-linecap:round"
         id="rect15"
         width="553.94489"
         height="141.91835"
         x="-245.95213"
         y="654.16168"
         transform="matrix(0.74044457,-0.67211743,0.66052055,0.75080797,0,0)" />
      <rect
         style="fill:#21d48f;fill-opacity:1;stroke:none;stroke-width:141.265;stroke-linecap:round"
         id="rect16"
         width="553.94489"
         height="141.91835"
         x="-245.95213"
         y="748.77393"
         transform="matrix(0.74044457,-0.67211743,0.66052055,0.75080797,0,0)" />
      <rect
         style="fill:#4acf26;fill-opacity:1;stroke:none;stroke-width:141.265;stroke-linecap:round"
         id="rect17"
         width="553.94489"
         height="141.91835"
         x="-245.95213"
         y="843.38617"
         transform="matrix(0.74044457,-0.67211743,0.66052055,0.75080797,0,0)" />
      <rect
         style="fill:#d3d122;fill-opacity:1;stroke:none;stroke-width:141.265;stroke-linecap:round"
         id="rect18"
         width="553.94489"
         height="141.91835"
         x="-245.95213"
         y="937.99841"
         transform="matrix(0.74044457,-0.67211743,0.66052055,0.75080797,0,0)" />
      <rect
         style="fill:#cd7428;fill-opacity:1;stroke:none;stroke-width:115.342;stroke-linecap:round"
         id="rect19"
         width="553.94489"
         height="94.612251"
         x="-245.95213"
         y="1032.6107"
         transform="matrix(0.74044457,-0.67211743,0.66052055,0.75080797,0,0)" />
    </pattern>
  </defs>
  <sodipodi:namedview
     id="namedview1"
     pagecolor="#ffffff"
     bordercolor="#000000"
     borderopacity="0.25"
     inkscape:showpageshadow="2"
     inkscape:pageopacity="0.0"
     inkscape:pagecheckerboard="0"
     inkscape:deskcolor="#d1d1d1"
     inkscape:zoom="0.723125"
     inkscape:cx="125.8427"
     inkscape:cy="380.98531"
     inkscape:window-width="2560"
     inkscape:window-height="1366"
     inkscape:window-x="0"
     inkscape:window-y="0"
     inkscape:window-maximized="1"
     inkscape:current-layer="svg1" />
  <path
     d="m 17.255561,20.683546 -4.691147,-4.691148 -1.432609,1.432609 C 9.6652481,18.891563 8.9319222,19.624842 8.1437669,19.451767 7.355612,19.278572 6.9971081,18.305512 6.2800891,16.359276 L 4.2346358,9.8685229 C 3.9299765,8.7315193 2.1504449,3.637476 2.7436646,3.0442571 3.3368846,2.4510384 8.4781511,4.059619 9.5679304,4.4611142 l 6.4907526,2.1195673 c 1.946238,0.7170191 2.919296,1.0755229 3.092491,1.8636779 0.173075,0.7881552 -0.560202,1.5214812 -2.026759,2.9880376 l -1.43261,1.432609 4.691148,4.691147 c 0.485756,0.485637 0.728634,0.728514 0.84084,0.999504 0.14961,0.361278 0.14961,0.767107 0,1.128386 -0.112206,0.27087 -0.355084,0.513747 -0.84084,0.999503 -0.485756,0.485754 -0.728633,0.728632 -0.999502,0.84084 -0.361279,0.149609 -0.767108,0.149609 -1.128387,0 -0.270989,-0.112208 -0.513867,-0.355086 -0.999503,-0.84084 z"
     stroke="#1C274C"
     stroke-width="1.78674"
     stroke-linecap="round"
     stroke-linejoin="round"
     id="path10"
     style="fill:none;fill-opacity:1;stroke:#ffffff;stroke-opacity:1"
     sodipodi:nodetypes="ccsccczcccsccccsccc" />
</svg>
