<?xml version="1.0" encoding="UTF-8" standalone="no"?>
<!-- Uploaded to: SVG Repo, www.svgrepo.com, Generator: SVG Repo Mixer Tools -->

<svg
   width="800px"
   height="800px"
   viewBox="0 0 24 24"
   fill="none"
   version="1.1"
   id="svg1"
   sodipodi:docname="mesure_distance.svg"
   inkscape:version="1.4.4 (dcaf3e7d9e, 2026-05-05)"
   xmlns:inkscape="http://www.inkscape.org/namespaces/inkscape"
   xmlns:sodipodi="http://sodipodi.sourceforge.net/DTD/sodipodi-0.dtd"
   xmlns="http://www.w3.org/2000/svg"
   xmlns:svg="http://www.w3.org/2000/svg">
  <defs
     id="defs1">
    <rect
       x="307.04447"
       y="228.81658"
       width="246.41785"
       height="289.44319"
       id="rect661" />
  </defs>
  <sodipodi:namedview
     id="namedview1"
     pagecolor="#ffffff"
     bordercolor="#000000"
     borderopacity="0.25"
     inkscape:showpageshadow="2"
     inkscape:pageopacity="0.0"
     inkscape:pagecheckerboard="0"
     inkscape:deskcolor="#d1d1d1"
     inkscape:zoom="1.0226532"
     inkscape:cx="206.32606"
     inkscape:cy="370.1157"
     inkscape:window-width="2560"
     inkscape:window-height="1366"
     inkscape:window-x="0"
     inkscape:window-y="0"
     inkscape:window-maximized="1"
     inkscape:current-layer="svg1" />
  <rect
     style="fill:#ffd100;fill-opacity:1;stroke-width:2.72313"
     id="rect5"
     width="24"
     height="8.7634306"
     x="-4.4408921e-16"
     y="15.236569" />
  <rect
     style="fill:#000000;fill-opacity:1;stroke-width:4.47124;stroke-dasharray:none"
     id="rect6"
     width="0.48490685"
     height="6.0248685"
     x="0.0016208333"
     y="15.231658" />
  <rect
     style="fill:#000000;fill-opacity:1;stroke-width:3.85983;stroke-dasharray:none"
     id="rect7"
     width="0.48490685"
     height="4.4899344"
     x="1.7518823"
     y="15.231658" />
  <rect
     style="fill:#000000;fill-opacity:1;stroke-width:2.81679;stroke-dasharray:none"
     id="rect8"
     width="0.48490685"
     height="2.3911469"
     x="3.4881971"
     y="15.231658" />
  <rect
     style="fill:#000000;fill-opacity:1;stroke-width:4.47124;stroke-dasharray:none"
     id="rect9"
     width="0.48490685"
     height="6.0248685"
     x="4.9386129"
     y="15.231658" />
  <rect
     style="fill:#000000;fill-opacity:1;stroke-width:3.85983;stroke-dasharray:none"
     id="rect10"
     width="0.48490685"
     height="4.4899344"
     x="6.6888752"
     y="15.231658" />
  <rect
     style="fill:#000000;fill-opacity:1;stroke-width:2.81679;stroke-dasharray:none"
     id="rect11"
     width="0.48490685"
     height="2.3911469"
     x="8.42519"
     y="15.231658" />
  <rect
     style="fill:#000000;fill-opacity:1;stroke-width:4.47124;stroke-dasharray:none"
     id="rect12"
     width="0.48490685"
     height="6.0248685"
     x="10.015069"
     y="15.231658" />
  <rect
     style="fill:#000000;fill-opacity:1;stroke-width:3.85983;stroke-dasharray:none"
     id="rect13"
     width="0.48490685"
     height="4.4899344"
     x="11.76533"
     y="15.231658" />
  <rect
     style="fill:#000000;fill-opacity:1;stroke-width:2.81679;stroke-dasharray:none"
     id="rect14"
     width="0.48490685"
     height="2.3911469"
     x="13.501646"
     y="15.231658" />
  <rect
     style="fill:#000000;fill-opacity:1;stroke-width:4.47124;stroke-dasharray:none"
     id="rect15"
     width="0.48490685"
     height="6.0248685"
     x="14.952061"
     y="15.231658" />
  <rect
     style="fill:#000000;fill-opacity:1;stroke-width:3.85983;stroke-dasharray:none"
     id="rect16"
     width="0.48490685"
     height="4.4899344"
     x="16.702322"
     y="15.231658" />
  <rect
     style="fill:#000000;fill-opacity:1;stroke-width:2.81679;stroke-dasharray:none"
     id="rect17"
     width="0.48490685"
     height="2.3911469"
     x="18.438639"
     y="15.231658" />
  <rect
     style="fill:#000000;fill-opacity:1;stroke-width:4.47124;stroke-dasharray:none"
     id="rect18"
     width="0.48490685"
     height="6.0248685"
     x="20.028519"
     y="15.231658" />
  <rect
     style="fill:#000000;fill-opacity:1;stroke-width:3.85983;stroke-dasharray:none"
     id="rect19"
     width="0.48490685"
     height="4.4899344"
     x="21.778778"
     y="15.231658" />
  <rect
     style="fill:#000000;fill-opacity:1;stroke-width:2.81679;stroke-dasharray:none"
     id="rect20"
     width="0.48490685"
     height="2.3911469"
     x="23.515093"
     y="15.231658" />
  <rect
     style="fill:#0065ff;fill-opacity:1;stroke-width:3.28607"
     id="rect36"
     width="21.012964"
     height="1.7898074"
     x="1.4727744"
     y="11.38361" />
  <path
     style="fill:#000000;fill-opacity:1;stroke-width:5.25852"
     id="path36"
     sodipodi:type="arc"
     sodipodi:cx="22.030956"
     sodipodi:cy="12.297466"
     sodipodi:rx="1.9690455"
     sodipodi:ry="1.9437866"
     sodipodi:start="4.7002249"
     sodipodi:end="4.6942372"
     sodipodi:arc-type="arc"
     d="m 22.007005,10.353823 a 1.9690455,1.9437866 0 0 1 1.992813,1.91709 1.9690455,1.9437866 0 0 1 -1.939016,1.970117 1.9690455,1.9437866 0 0 1 -1.998618,-1.911192 1.9690455,1.9437866 0 0 1 1.933033,-1.975838"
     sodipodi:open="true" />
  <path
     d="m 16.358852,7.1030581 q 0,-0.5104285 0.111822,-0.8731016 0.127797,-0.3761051 0.415339,-0.7119131 0.303514,-0.335808 0.8147,-0.6984806 0.623008,-0.4432668 0.958472,-0.7387778 0.35144,-0.2955109 0.495211,-0.5775897 0.143771,-0.2820788 0.143771,-0.6850485 0,-0.6447513 -0.49521,-0.9939917 -0.495212,-0.3492404 -1.437708,-0.3492404 -0.782754,0 -1.389785,0.1746202 -0.607031,0.1611878 -1.16614,0.3895373 L 14.314111,1.0988099 q 0.63898,-0.28207889 1.405759,-0.47013147 0.782751,-0.18805249 1.741223,-0.18805249 1.517583,0 2.348258,0.63131926 0.830676,0.631319 0.830676,1.719337 0,0.6044547 -0.239618,1.0342889 -0.223643,0.4164018 -0.654956,0.7790745 -0.415337,0.3492405 -0.990421,0.7522099 -0.527159,0.376105 -0.814702,0.6581839 -0.271566,0.2820787 -0.367413,0.564158 -0.09584,0.2686457 -0.09584,0.658184 v 0.228349 h -1.118216 z m -0.367414,2.3372225 q 0,-0.4969948 0.271567,-0.6984801 0.287541,-0.2014845 0.718852,-0.2014845 0.399365,0 0.686907,0.2014845 0.287541,0.2014853 0.287541,0.6984801 0,0.4835648 -0.287541,0.6984814 -0.287542,0.214918 -0.686907,0.214918 -0.431311,0 -0.718852,-0.214918 -0.271567,-0.2149166 -0.271567,-0.6984814 z"
     id="text37"
     style="font-size:14.0356px;letter-spacing:0.00548267px;fill:#000000;fill-opacity:1;stroke-width:2.78205"
     aria-label="?" />
  <path
     style="fill:#000000;fill-opacity:1;stroke-width:5.25852"
     id="path1"
     sodipodi:type="arc"
     sodipodi:cx="1.9690455"
     sodipodi:cy="12.297466"
     sodipodi:rx="1.9690455"
     sodipodi:ry="1.9437866"
     sodipodi:start="4.7002249"
     sodipodi:end="4.6942372"
     sodipodi:arc-type="arc"
     d="M 1.9450945,10.353823 A 1.9690455,1.9437866 0 0 1 3.9379073,12.270913 1.9690455,1.9437866 0 0 1 1.998891,14.24103 1.9690455,1.9437866 0 0 1 2.7308475e-4,12.329838 1.9690455,1.9437866 0 0 1 1.9333058,10.354"
     sodipodi:open="true" />
</svg>
